<svg xmlns="http://www.w3.org/2000/svg" viewBox="0 0 64 64" role="img" aria-label="Monarc Build"><path d="M29.00,30.50 L17.28,31.18 A11.80,11.80 0 1 1 28.38,18.78 Z" fill="#1F5ED8" stroke="#1F5ED8" stroke-width="2.6" stroke-linejoin="round"/><path d="M35.00,30.50 L35.62,18.78 A11.80,11.80 0 1 1 46.72,31.18 Z" fill="#E8604C" stroke="#E8604C" stroke-width="2.6" stroke-linejoin="round"/><path d="M29.00,35.50 L28.90,45.09 A8.30,8.30 0 1 1 19.50,36.77 Z" fill="#169C86" stroke="#169C86" stroke-width="2.6" stroke-linejoin="round"/><path d="M35.00,35.50 L44.50,36.77 A8.30,8.30 0 1 1 35.10,45.09 Z" fill="#F2A93B" stroke="#F2A93B" stroke-width="2.6" stroke-linejoin="round"/><rect x="30.4" y="21.5" width="3.2" height="27" rx="1.6" fill="#202124"/><path d="M31.2,22.5 Q29.5,15 25.8,10.8 M32.8,22.5 Q34.5,15 38.2,10.8" fill="none" stroke="#202124" stroke-width="1.5" stroke-linecap="round"/><circle cx="25.6" cy="10.6" r="1.7" fill="#202124"/><circle cx="38.4" cy="10.6" r="1.7" fill="#202124"/></svg>